<svg xmlns="http://www.w3.org/2000/svg" width="18.968" height="18.969" viewBox="0 0 18.968 18.969">
  <g id="Subtraction_10" data-name="Subtraction 10">
    <path d="M6.969,18.968H0V12l2.763,2.762,2.884-2.884A4.546,4.546,0,0,0,7.055,13.3L4.177,16.177l2.79,2.79Zm6.3-11.882h0a4.548,4.548,0,0,0-1.421-1.406l2.916-2.916L12,0h6.969V6.969L16.177,4.177,13.268,7.085Z" stroke="none"/>
    <path d="M 4.554488182067871 17.9684009552002 L 2.762690544128418 16.17661094665527 L 5.565374851226807 13.37390899658203 C 5.5653395652771 13.37387275695801 5.565279483795166 13.37381267547607 5.565244197845459 13.37377643585205 L 2.763120412826538 16.17590141296387 L 1.000000476837158 14.41335487365723 L 1.000000476837158 17.9684009552002 L 4.554488182067871 17.9684009552002 M 13.3424129486084 5.596867561340332 L 16.17660140991211 2.762690544128418 L 17.9684009552002 4.55448055267334 L 17.9684009552002 1.000000476837158 L 14.41334819793701 1.000000476837158 L 16.17590141296387 2.76313042640686 L 13.34228420257568 5.596739292144775 C 13.34235572814941 5.596809864044189 13.34234237670898 5.596796989440918 13.3424129486084 5.596867561340332 M 6.968690395355225 18.9684009552002 L 4.776001105710748e-07 18.9684009552002 L 4.776001105710748e-07 11.99970054626465 L 2.76300048828125 14.76180076599121 L 5.647280693054199 11.87752056121826 C 6.001840591430664 12.4463005065918 6.488010406494141 12.9376802444458 7.054800510406494 13.2987003326416 L 4.176900386810303 16.17661094665527 L 6.968690395355225 18.9684009552002 Z M 13.2672004699707 7.086300373077393 L 13.26653003692627 7.085250377655029 C 12.90610027313232 6.519740581512451 12.41490077972412 6.033400535583496 11.84602069854736 5.678780555725098 L 14.76180076599121 2.763010501861572 L 11.99970054626465 4.776001105710748e-07 L 18.9684009552002 4.776001105710748e-07 L 18.9684009552002 6.968700408935547 L 16.17660140991211 4.176900386810303 L 13.2672004699707 7.086300373077393 Z" stroke="none" fill="rgba(112,112,112,0.27)"/>
  </g>
</svg>
