<svg xmlns="http://www.w3.org/2000/svg" width="34.607" height="34.599" viewBox="0 0 34.607 34.599">
  <path id="instagram" d="M17.232,40.254A8.871,8.871,0,1,0,26.1,49.125,8.857,8.857,0,0,0,17.232,40.254Zm0,14.638A5.767,5.767,0,1,1,23,49.125a5.778,5.778,0,0,1-5.767,5.767Zm11.3-15a2.069,2.069,0,1,1-2.069-2.069A2.064,2.064,0,0,1,28.535,39.891Zm5.875,2.1c-.131-2.772-.764-5.227-2.795-7.249s-4.478-2.656-7.249-2.795c-2.857-.162-11.418-.162-14.275,0a10.292,10.292,0,0,0-7.249,2.787C.811,36.756.186,39.211.047,41.983-.116,44.84-.116,53.4.047,56.258c.131,2.772.764,5.227,2.795,7.249s4.478,2.656,7.249,2.795c2.857.162,11.418.162,14.275,0,2.772-.131,5.227-.764,7.249-2.795s2.656-4.478,2.795-7.249C34.572,53.4,34.572,44.847,34.41,41.991ZM30.72,59.323a5.839,5.839,0,0,1-3.289,3.289c-2.278.9-7.682.695-10.2.695s-7.929.2-10.2-.695a5.839,5.839,0,0,1-3.289-3.289c-.9-2.278-.695-7.682-.695-10.2s-.2-7.929.695-10.2a5.839,5.839,0,0,1,3.289-3.289c2.278-.9,7.682-.695,10.2-.695s7.929-.2,10.2.695a5.839,5.839,0,0,1,3.289,3.289c.9,2.278.695,7.682.695,10.2S31.623,57.053,30.72,59.323Z" transform="translate(0.075 -31.825)"/>
</svg>
